<?xml version="1.0"?>
<svg version="1.1" id="圖層_1" xmlns="http://www.w3.org/2000/svg" x="0" y="0" viewBox="0 0 100 100" xml:space="preserve"><path d="M87.3 25.3c-.2-1.3-1.3-2.2-2.6-2.2H11.9C9.7 23.1 8 24.9 8 27v38.6h56v1.6c0 1.6 1.3 2.9 2.8 2.9h22.1c1.6 0 2.8-1.3 2.8-2.8V54.6s-3.3-22.1-4.4-29.3z" fill="#77a4bd"/><path d="M11.9 59.7h-4c-.2 0-.4.2-.4.4v3.4c0 .2.2.4.4.4H12c1 0 1.8-.8 1.8-1.8v-.5c0-1-.9-1.9-1.9-1.9z" fill="#e15b64"/><path d="M73.5 65.6H9.7s-.3 0-.3.4c0 2.4 1.3 4 3.3 4h60.8c1 0 1.7-1 1.7-2.2 0-1.2-.8-2.2-1.7-2.2z" fill="#666"/><g><circle cx="25.6" cy="68" r="7.4" fill="#fff"/><path d="M25.6 62.1c3.3 0 5.9 2.7 5.9 5.9s-2.7 5.9-5.9 5.9-5.9-2.7-5.9-5.9 2.7-5.9 5.9-5.9m0-3c-4.9 0-8.9 4-8.9 8.9s4 8.9 8.9 8.9 8.9-4 8.9-8.9-3.9-8.9-8.9-8.9z" fill="#333"/></g><g><circle cx="25.6" cy="68" r="4" fill="#e6e6e6"/></g><g><circle cx="72.9" cy="68" r="7.4" fill="#fff"/><path d="M72.9 62.1c3.3 0 5.9 2.7 5.9 5.9s-2.7 5.9-5.9 5.9S67 71.2 67 68s2.6-5.9 5.9-5.9m0-3c-4.9 0-8.9 4-8.9 8.9s4 8.9 8.9 8.9 8.9-4 8.9-8.9-4-8.9-8.9-8.9z" fill="#333"/></g><g><circle cx="72.9" cy="68" r="4" fill="#e6e6e6"/></g><path d="M86.9 60.7h4.4c.6 0 1.1-.5 1.1-1.1v-1.9c0-.6-.5-1.1-1.1-1.1H87c-.3 0-.5.2-.5.5v3.2c0 .2.2.4.4.4z" fill="#e0e0e0"/><path d="M84.8 27.7c-.4-1.1-1.1-1.7-1.9-1.7H69.1c-1.2 0-2.2 1.5-2.2 3.3l-.1 17.1c0 1.3 1 2.3 2.3 2.3h16c1.4 0 2.4-1.2 2.2-2.6-.7-5.6-2.5-18.4-2.5-18.4z" fill="#333"/><path d="M55.2 64h6.4c1.2 0 2.2-1 2.2-2.2V28.2c0-1.2-1-2.2-2.2-2.2h-6.4C54 26 53 27 53 28.2v33.6c0 1.2 1 2.2 2.2 2.2z" fill="#333"/><path d="M40.7 48.6h7.4c.9 0 1.7-.8 1.7-1.7V27.7c0-.9-.8-1.7-1.7-1.7h-7.4c-.9 0-1.7.8-1.7 1.7V47c0 .9.8 1.6 1.7 1.6z" fill="#333"/><path d="M26.7 48.6h7.4c.9 0 1.7-.8 1.7-1.7V27.7c0-.9-.8-1.7-1.7-1.7h-7.4c-.9 0-1.7.8-1.7 1.7V47c0 .9.8 1.6 1.7 1.6z" fill="#333"/><path d="M12.7 48.6h7.4c.9 0 1.7-.8 1.7-1.7V27.7c0-.9-.8-1.7-1.7-1.7h-7.4c-.9 0-1.7.8-1.7 1.7V47c0 .9.8 1.6 1.7 1.6z" fill="#333"/><path fill="none" stroke="#a0c8d7" stroke-width="2.885" stroke-linecap="round" stroke-miterlimit="10" d="M12.1 52.8h36.7"/><metadata xmlns:d="https://loading.io/stock/"><d:name>truck</d:name><d:tags>school bus,tour,wagon,suv,cargo,ship,goods,truck,transportation</d:tags><d:license>by</d:license><d:slug>3gyeo9</d:slug></metadata></svg>