<svg id="Capa_1" enable-background="new 0 0 511.994 511.994" height="512" viewBox="0 0 511.994 511.994" width="512" xmlns="http://www.w3.org/2000/svg"><g><path d="m83.148 412.61v49.217h394.693v-49.217" fill="#454545"/><path d="m452.91 165.524c-74.161-5.873-148.321-5.873-222.482 0-11.723.928-21.185 10.024-22.427 21.718-6.49 61.077-6.49 122.155 0 183.232 1.243 11.694 10.704 20.79 22.427 21.718 74.161 5.873 148.321 5.873 222.482 0 11.723-.928 21.185-10.024 22.427-21.718 6.49-61.077 6.49-122.155 0-183.232-1.242-11.694-10.703-20.79-22.427-21.718z" fill="#f4dd45"/><path d="m244.722 393.251c-4.767-.328-9.533-.675-14.299-1.056-11.717-.932-21.179-10.021-22.422-21.72-6.488-61.077-6.488-122.155 0-183.232 1.243-11.69 10.705-20.788 22.422-21.72 4.766-.373 9.533-.728 14.299-1.056-4.403 4.145-7.358 9.799-8.033 16.173-6.959 65.48-6.959 130.96 0 196.44.675 6.371 3.631 12.034 8.033 16.171z" fill="#ecbe6b"/><path d="m381.613 161.688v121.951l-39.943-27.827-39.934 27.827v-121.951c26.628-.763 53.248-.763 79.877 0z" fill="#da4a54"/><path d="m83.148 451.186h394.693c14.72 0 26.653 11.933 26.653 26.653 0 14.72-11.933 26.653-26.653 26.653h-394.693c-14.72 0-26.653-11.933-26.653-26.653-.001-14.72 11.933-26.653 26.653-26.653z" fill="#595959"/><path d="m123.054 504.499h-39.9c-14.72 0-26.66-11.94-26.66-26.66 0-7.36 2.99-14.02 7.81-18.85 4.82-4.82 11.49-7.8 18.85-7.8h39.899c-7.36 0-14.02 2.98-18.85 7.8-4.82 4.83-7.8 11.49-7.8 18.85.001 14.72 11.931 26.66 26.651 26.66z" fill="#454545"/><path d="m69.821 396.598h421.346c7.36 0 13.327 5.967 13.327 13.327 0 7.36-5.967 13.327-13.327 13.327h-421.346c-7.36 0-13.327-5.967-13.327-13.327 0-7.36 5.967-13.327 13.327-13.327z" fill="#f6f9f9"/><path d="m127.024 423.254h-57.2c-7.36 0-13.33-5.97-13.33-13.33 0-3.68 1.49-7.01 3.91-9.43 2.41-2.41 5.74-3.9 9.42-3.9h57.199c-3.68 0-7.01 1.49-9.42 3.9-2.42 2.42-3.91 5.75-3.91 9.43.001 7.361 5.971 13.33 13.331 13.33z" fill="#dae4ea"/><path d="m107.639 214.416h39.899v236.767h-39.899z" fill="#595959"/><path d="m107.635 214.419h19.952v236.766h-19.952z" fill="#454545"/><path d="m147.538 214.416v58.029c-6.49 1.1-13.15 1.66-19.95 1.66s-13.46-.56-19.95-1.66v-58.029z" fill="#454545"/><circle cx="127.587" cy="127.586" fill="#595959" r="120.087"/><path d="m214.418 127.587c0 19.32-6.31 37.16-16.98 51.579-15.8-21.4-41.199-35.27-69.849-35.27s-54.059 13.87-69.859 35.27c-10.67-14.42-16.98-32.26-16.98-51.579 0-47.959 38.88-86.839 86.839-86.839s86.829 38.88 86.829 86.839z" fill="#cbe2ff"/><path d="m149.478 127.587c0 7.06-3.34 13.33-8.52 17.33-4.36-.67-8.82-1.02-13.37-1.02s-9.01.35-13.37 1.02c-5.18-4-8.52-10.27-8.52-17.33 0-12.09 9.8-21.89 21.89-21.89s21.89 9.8 21.89 21.89z" fill="#da4a54"/><path d="m191.404 183.621c1.413 1.914 3.651 3.044 6.03 3.045h.004c2.377 0 4.615-1.127 6.029-3.039 12.07-16.313 18.45-35.692 18.45-56.041 0-52.019-42.315-94.339-94.329-94.339-52.019 0-94.339 42.32-94.339 94.339 0 20.349 6.38 39.728 18.451 56.041 1.414 1.912 3.651 3.039 6.029 3.039h.004c2.379-.001 4.617-1.131 6.03-3.045 12.532-16.973 30.857-28.086 51.595-31.292 8.057-1.238 16.41-1.237 24.455-.001 20.736 3.206 39.059 14.319 51.591 31.293zm-132.953-17.08c-6.699-11.83-10.202-25.124-10.202-38.954 0-43.748 35.591-79.339 79.339-79.339 43.742 0 79.329 35.591 79.329 79.339 0 13.83-3.502 27.124-10.201 38.954-11.603-12.554-26.234-21.602-42.561-26.356 1.836-3.872 2.823-8.151 2.823-12.597 0-13.615-9.307-25.093-21.891-28.417v-29.073c0-4.142-3.358-7.5-7.5-7.5s-7.5 3.358-7.5 7.5v29.073c-12.583 3.325-21.889 14.802-21.889 28.416 0 4.445.987 8.724 2.823 12.596-16.331 4.754-30.965 13.803-42.57 26.358zm58.29-29.525c-2.267-2.594-3.542-5.902-3.542-9.429 0-7.935 6.456-14.39 14.39-14.39s14.39 6.455 14.39 14.39c0 3.527-1.276 6.834-3.542 9.429-7.185-.817-14.505-.817-21.696 0z"/><path d="m76.177 101.149c-3.91-1.38-8.19.67-9.57 4.58-1.38 3.9.67 8.19 4.57 9.56.83.3 1.67.44 2.5.44 3.09 0 5.98-1.93 7.07-5.01 1.38-3.911-.67-8.19-4.57-9.57z"/><path d="m181.467 115.639c.83 0 1.67-.14 2.5-.43 3.91-1.39 5.95-5.68 4.56-9.58-1.38-3.9-5.67-5.95-9.57-4.56-3.91 1.38-5.95 5.67-4.56 9.58 1.09 3.07 3.98 4.99 7.07 4.99z"/><path d="m180.077 135.778c-3.91 1.38-5.95 5.67-4.56 9.58 1.09 3.07 3.98 4.99 7.07 4.99.83 0 1.67-.14 2.5-.43 3.91-1.39 5.95-5.68 4.56-9.58-1.38-3.899-5.67-5.949-9.57-4.56z"/><path d="m70.067 135.778c-3.91 1.38-5.95 5.67-4.56 9.58 1.09 3.07 3.98 4.99 7.07 4.99.83 0 1.67-.14 2.5-.43 3.91-1.39 5.95-5.68 4.56-9.58-1.38-3.899-5.67-5.949-9.57-4.56z"/><path d="m100.677 76.259c-2.4-3.38-7.08-4.17-10.46-1.78-3.38 2.4-4.17 7.08-1.78 10.46 1.47 2.06 3.78 3.16 6.13 3.16 1.5 0 3.01-.45 4.33-1.38 3.38-2.401 4.18-7.08 1.78-10.46z"/><path d="m156.217 86.679c1.31.93 2.82 1.37 4.32 1.37 2.35 0 4.67-1.1 6.13-3.17 2.39-3.38 1.59-8.06-1.79-10.45s-8.07-1.59-10.46 1.79-1.59 8.06 1.8 10.46z"/><path d="m161.025 180.168c0-4.142-3.358-7.5-7.5-7.5h-51.876c-4.142 0-7.5 3.358-7.5 7.5s3.358 7.5 7.5 7.5h51.876c4.142 0 7.5-3.358 7.5-7.5z"/><path d="m113.09 195.717c-4.142 0-7.5 3.358-7.5 7.5s3.358 7.5 7.5 7.5h28.995c4.142 0 7.5-3.358 7.5-7.5s-3.358-7.5-7.5-7.5z"/><path d="m485.341 444.526v-13.774h5.827c11.484 0 20.827-9.343 20.827-20.827s-9.343-20.827-20.827-20.827h-16.308c4.331-4.837 7.208-11 7.933-17.83.472-4.45.897-8.774 1.262-12.852.37-4.126-2.675-7.77-6.801-8.14-4.123-.369-7.77 2.675-8.14 6.801-.358 3.997-.774 8.239-1.238 12.608-.856 8.064-7.397 14.388-15.554 15.035-73.427 5.812-147.884 5.812-221.302 0-8.157-.647-14.703-6.973-15.565-15.036-5.181-48.733-6.171-98.155-2.967-146.949 15.403-13.757 27.459-31.185 34.773-50.9 15.618-1.056 31.28-1.861 46.968-2.391v114.198c0 2.793 1.553 5.356 4.029 6.648s5.465 1.103 7.758-.495l35.653-24.842 35.653 24.842c1.282.894 2.782 1.347 4.288 1.347 1.188 0 2.379-.282 3.47-.852 2.477-1.292 4.029-3.855 4.029-6.648v-114.193c21.125.713 42.214 1.892 63.21 3.557 8.159.647 14.7 6.97 15.555 15.036 4.916 46.254 6.073 93.145 3.44 139.369-.236 4.136 2.926 7.679 7.061 7.915.146.008.29.012.434.012 3.947 0 7.254-3.083 7.481-7.073 2.679-47.035 1.502-94.746-3.5-141.806-1.615-15.242-13.932-27.188-29.285-28.406-66.866-5.302-134.644-5.817-201.635-1.557 2.161-9.291 3.304-18.967 3.304-28.906 0-70.353-57.236-127.588-127.588-127.588-34.576 0-66.936 13.599-91.118 38.292-2.898 2.959-2.849 7.708.111 10.606s7.708 2.848 10.606-.111c21.337-21.788 49.891-33.787 80.401-33.787 62.082 0 112.588 50.507 112.588 112.588 0 62.076-50.507 112.578-112.588 112.578s-112.586-50.502-112.586-112.578c0-19.905 5.26-39.458 15.211-56.545 2.084-3.579.873-8.171-2.707-10.255-3.579-2.085-8.171-.873-10.255 2.707-11.284 19.376-17.249 41.539-17.249 64.093 0 60.925 42.935 112.004 100.137 124.595v136.912h-30.316c-11.484 0-20.827 9.343-20.827 20.827s9.343 20.827 20.827 20.827h5.827v13.774c-15.235 3.428-26.653 17.058-26.653 33.313 0 18.832 15.321 34.153 34.153 34.153h394.693c18.832 0 34.153-15.321 34.153-34.153 0-16.254-11.418-29.884-26.653-33.312zm-176.112-275.505c21.615-.499 43.261-.502 64.882-.004v100.259l-28.153-19.617c-2.576-1.796-5.999-1.796-8.575 0l-28.153 19.617v-100.255zm-154.192 83.165c15.076-3.318 29.16-9.305 41.729-17.447-2.295 45.416-1.039 91.266 3.774 136.535.73 6.826 3.61 12.987 7.942 17.823h-53.445zm0 151.909 336.13.002c3.213 0 5.827 2.614 5.827 5.827s-2.614 5.827-5.827 5.827h-336.13zm0 26.657h315.304v12.934h-315.304zm-39.9-176.192c4.098.399 8.251.609 12.452.609 4.2 0 8.351-.21 12.448-.608l-.003 189.125h-25.047zm-45.316 161.192c-3.213 0-5.827-2.614-5.827-5.827s2.614-5.827 5.827-5.827h30.163v11.654zm30.163 15v12.934h-9.336v-12.934zm377.857 66.24h-394.693c-10.561 0-19.153-8.592-19.153-19.153s8.592-19.153 19.153-19.153h394.693c10.561 0 19.153 8.592 19.153 19.153s-8.592 19.153-19.153 19.153z"/></g></svg>