<?xml version="1.0"?>
<svg version="1.1" id="圖層_1" xmlns="http://www.w3.org/2000/svg" x="0" y="0" viewBox="0 0 100 100" xml:space="preserve"><path d="M83.3 53.5h-60c-1.1 0-2-.9-2-2V23.3c0-1.1.9-2 2-2h60c1.1 0 2 .9 2 2v28.2c0 1.1-.9 2-2 2z" fill="#666" stroke="#333" stroke-width="2.841"/><path d="M25.2 56.4H11.7c-1.1 0-2-.9-2-2V20.3c0-1.1.9-2 2-2h13.6c1.1 0 2 .9 2 2v34.1c-.1 1.1-1 2-2.1 2z" fill="#333" stroke="#333" stroke-width="3.041"/><path fill="#e0e0e0" stroke="#333" stroke-width="2.841" d="M35.2 43.5h41.4v42.7H35.2z"/><path fill="#e0e0e0" stroke="#333" stroke-width="2.841" d="M35.2 7.7h41.4v19.2H35.2z"/><g><path fill="none" stroke="#333" stroke-width="2.974" d="M42.8 51.6h26.1"/><path fill="none" stroke="#333" stroke-width="2.974" d="M42.8 60.3h26.1"/><path fill="none" stroke="#333" stroke-width="2.974" d="M42.8 69h26.1"/><path fill="none" stroke="#333" stroke-width="2.974" d="M42.8 77.7h26.1"/></g><circle cx="72.8" cy="35.3" r="3.1" fill="#1bd112"/><metadata xmlns:d="https://loading.io/stock/"><d:name>fax</d:name><d:tags>printer,telegraph,telephone,document,copy,clone,fax,web application</d:tags><d:license>pro</d:license><d:slug>vbdhe1</d:slug></metadata></svg>